{
	"asset":{
		"generator":"Khronos glTF Blender I/O v4.0.44",
		"version":"2.0"
	},
	"extensionsUsed":[
		"KHR_materials_specular",
		"KHR_materials_ior"
	],
	"scene":0,
	"scenes":[
		{
			"name":"Scene",
			"nodes":[
				0
			]
		}
	],
	"nodes":[
		{
			"mesh":0,
			"name":"test",
			"rotation":[
				0.7071068286895752,
				0,
				0,
				0.7071068286895752
			]
		}
	],
	"materials":[
		{
			"doubleSided":true,
			"extensions":{
				"KHR_materials_specular":{
					"specularFactor":0
				},
				"KHR_materials_ior":{
					"ior":1.4500000476837158
				}
			},
			"name":"Mesh",
			"pbrMetallicRoughness":{
				"baseColorFactor":[
					0.800000011920929,
					0.800000011920929,
					0.800000011920929,
					1
				],
				"metallicFactor":0
			}
		}
	],
	"meshes":[
		{
			"name":"test",
			"primitives":[
				{
					"attributes":{
						"POSITION":0,
						"NORMAL":1,
						"TEXCOORD_0":2,
						"TANGENT":3
					},
					"indices":4,
					"material":0
				}
			]
		}
	],
	"accessors":[
		{
			"bufferView":0,
			"componentType":5126,
			"count":14424,
			"max":[
				0.22199000418186188,
				-0.6158949732780457,
				0.2243250012397766
			],
			"min":[
				-0.22217999398708344,
				-0.8357530236244202,
				-0.20681500434875488
			],
			"type":"VEC3"
		},
		{
			"bufferView":1,
			"componentType":5126,
			"count":14424,
			"type":"VEC3"
		},
		{
			"bufferView":2,
			"componentType":5126,
			"count":14424,
			"type":"VEC2"
		},
		{
			"bufferView":3,
			"componentType":5126,
			"count":14424,
			"type":"VEC4"
		},
		{
			"bufferView":4,
			"componentType":5123,
			"count":14622,
			"type":"SCALAR"
		}
	],
	"bufferViews":[
		{
			"buffer":0,
			"byteLength":173088,
			"byteOffset":0,
			"target":34962
		},
		{
			"buffer":0,
			"byteLength":173088,
			"byteOffset":173088,
			"target":34962
		},
		{
			"buffer":0,
			"byteLength":115392,
			"byteOffset":346176,
			"target":34962
		},
		{
			"buffer":0,
			"byteLength":230784,
			"byteOffset":461568,
			"target":34962
		},
		{
			"buffer":0,
			"byteLength":29244,
			"byteOffset":692352,
			"target":34963
		}
	],
	"buffers":[
		{
			"byteLength":721596,
			"uri":"starModel.bin"
		}
	]
}
